<svg xmlns="http://www.w3.org/2000/svg" viewBox="0 0 2397 1576" width="2397" height="1576" role="img" aria-label="main_electrical">
<style>@import url("https://fonts.googleapis.com/css2?family=Inter:wght@400;500;600&amp;display=swap");
svg{--bg:#eef0f3;--card:#ffffff;--line:#d5d9df;--text:#1b1f24;--muted:#5e6670;--faint:#9aa1aa;--casing:#7f8792;--case-bk:#7f8792;--case-wh:#7f8792;--tag-bg:#ffffff}
@media (prefers-color-scheme: dark){svg{--bg:#121418;--card:#1c1f25;--line:#323741;--text:#e8eaed;--muted:#9aa1ab;--faint:#626a75;--casing:#5d6570;--case-bk:#9aa1ab;--case-wh:#5d6570;--tag-bg:#23272e}}
text{font-family:Inter,'Helvetica Neue',Arial,sans-serif;fill:var(--text)}
.bg{fill:var(--bg)}
.card{fill:var(--card);stroke:var(--line);stroke-width:1}
.rule{stroke:var(--line);stroke-width:1;stroke-opacity:.55}
.muted{fill:var(--muted)}
.faint{fill:var(--faint)}
.casing{fill:none;stroke:var(--casing);stroke-linejoin:round}
.case-bk{stroke:var(--case-bk)}
.case-wh{stroke:var(--case-wh)}
.core{fill:none;stroke-linejoin:round}
.tag{fill:var(--tag-bg);stroke:var(--line);stroke-width:1}
.port{fill:var(--card);stroke:var(--muted);stroke-width:1.2}</style>
<rect class="bg" width="2397" height="1576"/>
<text x="24" y="36" font-size="20" font-weight="600">main_electrical</text>
<text class="muted" x="24" y="56" font-size="11.5">main_electrical.yml · dot -Tjson, splines</text>
<rect class="card" x="0" y="893" width="182" height="128" rx="9"/>
<rect x="12" y="905" width="10" height="10" rx="2.5" style="fill:#2f6fd8"/>
<text x="28" y="914" font-size="13" font-weight="600">LIFEPO4_BATTERY</text>
<text class="muted" x="12" y="932" font-size="10.5">DIY LiFePO4 Battery Pack · 24V</text>
<text class="muted" x="22" y="965.1" text-anchor="end" font-size="10.5">1</text>
<text x="38" y="965.1" font-size="11.5">BAT+</text>
<line class="rule" x1="10" y1="973" x2="172" y2="973"/>
<text class="muted" x="22" y="989.1" text-anchor="end" font-size="10.5">2</text>
<text x="38" y="989.1" font-size="11.5">BAT-</text>
<line class="rule" x1="0" y1="997" x2="182" y2="997" stroke-opacity="1"/>
<text class="muted" x="12" y="1016" font-size="10">Studs: M6</text>
<rect class="card" x="349" y="864" width="214" height="48" rx="9"/>
<rect x="361" y="876" width="10" height="10" rx="2.5" style="fill:#f74f43"/>
<text x="377" y="885" font-size="13" font-weight="600">BATTERY_ISOLATOR_300A</text>
<text class="muted" x="361" y="903" font-size="10.5">300A Battery Isolator</text>
<rect class="card" x="748" y="612" width="176" height="228" rx="9"/>
<rect x="760" y="624" width="10" height="10" rx="2.5" style="fill:#69c3f3"/>
<text x="776" y="633" font-size="13" font-weight="600">MIDI_FUSE_BLOCK_A</text>
<text class="muted" x="760" y="651" font-size="10.5">5-Way MIDI Fuse Block</text>
<text class="muted" x="770" y="684.1" text-anchor="end" font-size="10.5">1</text>
<text x="786" y="684.1" font-size="11.5">FEED</text>
<line class="rule" x1="758" y1="692" x2="914" y2="692"/>
<text class="muted" x="770" y="708.1" text-anchor="end" font-size="10.5">2</text>
<text x="786" y="708.1" font-size="11.5">FEED_OUT</text>
<line class="rule" x1="758" y1="716" x2="914" y2="716"/>
<text class="muted" x="770" y="732.1" text-anchor="end" font-size="10.5">3</text>
<text x="786" y="732.1" font-size="11.5">OUT1</text>
<line class="rule" x1="758" y1="740" x2="914" y2="740"/>
<text class="muted" x="770" y="756.1" text-anchor="end" font-size="10.5">4</text>
<text x="786" y="756.1" font-size="11.5">OUT2</text>
<line class="rule" x1="758" y1="764" x2="914" y2="764"/>
<text class="faint" x="836" y="780.1" text-anchor="middle" font-size="10.5" font-style="italic">5–7 · 3 unused</text>
<line class="rule" x1="748" y1="788" x2="924" y2="788" stroke-opacity="1"/>
<text class="muted" x="760" y="807" font-size="10">Maxi-fused input feed (M8</text>
<text class="muted" x="760" y="821" font-size="10">stud)</text>
<text class="muted" x="760" y="835" font-size="10">MIDI-fused outputs (M6 studs)</text>
<rect class="card" x="1105" y="137" width="174" height="276" rx="9"/>
<rect x="1117" y="149" width="10" height="10" rx="2.5" style="fill:#69c3f3"/>
<text x="1133" y="158" font-size="13" font-weight="600">MIDI_FUSE_BLOCK_B</text>
<text class="muted" x="1117" y="176" font-size="10.5">5-Way MIDI Fuse Block</text>
<text class="muted" x="1127" y="209.1" text-anchor="end" font-size="10.5">1</text>
<text x="1143" y="209.1" font-size="11.5">FEED</text>
<line class="rule" x1="1115" y1="217" x2="1269" y2="217"/>
<text class="faint" x="1127" y="233.1" text-anchor="end" font-size="10.5">2</text>
<text class="faint" x="1143" y="233.1" font-size="11.5">FEED_OUT</text>
<line class="rule" x1="1115" y1="241" x2="1269" y2="241"/>
<text class="muted" x="1127" y="257.1" text-anchor="end" font-size="10.5">3</text>
<text x="1143" y="257.1" font-size="11.5">OUT1</text>
<line class="rule" x1="1115" y1="265" x2="1269" y2="265"/>
<text class="muted" x="1127" y="281.1" text-anchor="end" font-size="10.5">4</text>
<text x="1143" y="281.1" font-size="11.5">OUT2</text>
<line class="rule" x1="1115" y1="289" x2="1269" y2="289"/>
<text class="muted" x="1127" y="305.1" text-anchor="end" font-size="10.5">5</text>
<text x="1143" y="305.1" font-size="11.5">OUT3</text>
<line class="rule" x1="1115" y1="313" x2="1269" y2="313"/>
<text class="faint" x="1127" y="329.1" text-anchor="end" font-size="10.5">6</text>
<text class="faint" x="1143" y="329.1" font-size="11.5">OUT4</text>
<line class="rule" x1="1115" y1="337" x2="1269" y2="337"/>
<text class="faint" x="1127" y="353.1" text-anchor="end" font-size="10.5">7</text>
<text class="faint" x="1143" y="353.1" font-size="11.5">OUT5</text>
<line class="rule" x1="1105" y1="361" x2="1279" y2="361" stroke-opacity="1"/>
<text class="muted" x="1117" y="380" font-size="10">Maxi-fused input feed (M8</text>
<text class="muted" x="1117" y="394" font-size="10">stud)</text>
<text class="muted" x="1117" y="408" font-size="10">MIDI-fused outputs (M6 studs)</text>
<rect class="card" x="1772" y="511" width="150" height="242" rx="9"/>
<rect x="1784" y="523" width="10" height="10" rx="2.5" style="fill:#36b7ff"/>
<text x="1800" y="532" font-size="13" font-weight="600">MPPT_150_45</text>
<text class="muted" x="1784" y="550" font-size="10.5">150/45 SmartSolar MPPT</text>
<text class="muted" x="1794" y="583.1" text-anchor="end" font-size="10.5">1</text>
<text x="1810" y="583.1" font-size="11.5">PV+</text>
<line class="rule" x1="1782" y1="591" x2="1912" y2="591"/>
<text class="muted" x="1794" y="607.1" text-anchor="end" font-size="10.5">2</text>
<text x="1810" y="607.1" font-size="11.5">PV-</text>
<line class="rule" x1="1782" y1="615" x2="1912" y2="615"/>
<text class="muted" x="1794" y="631.1" text-anchor="end" font-size="10.5">3</text>
<text x="1810" y="631.1" font-size="11.5">BAT+</text>
<line class="rule" x1="1782" y1="639" x2="1912" y2="639"/>
<text class="muted" x="1794" y="655.1" text-anchor="end" font-size="10.5">4</text>
<text x="1810" y="655.1" font-size="11.5">BAT-</text>
<line class="rule" x1="1782" y1="663" x2="1912" y2="663"/>
<text class="faint" x="1794" y="679.1" text-anchor="end" font-size="10.5">5</text>
<text class="faint" x="1810" y="679.1" font-size="11.5">VEDIRECT</text>
<line class="rule" x1="1772" y1="687" x2="1922" y2="687" stroke-opacity="1"/>
<text class="muted" x="1784" y="706" font-size="10">PV input: max 150V Voc --</text>
<text class="muted" x="1784" y="720" font-size="10">3x panels in series approx</text>
<text class="muted" x="1784" y="734" font-size="10">105V Voc, OK</text>
<text class="muted" x="1784" y="748" font-size="10">Max output: 45A at 24V</text>
<rect class="card" x="1697" y="785" width="300" height="236" rx="9"/>
<rect x="1709" y="797" width="10" height="10" rx="2.5" style="fill:#36b7ff"/>
<text x="1725" y="806" font-size="13" font-weight="600">ORION_XS_1400</text>
<text class="muted" x="1709" y="824" font-size="10.5">Orion XS 1400 DC-DC Charger · 12/24V universal, set to 12V in / 24V out; non-isolated</text>
<text class="muted" x="1719" y="857.1" text-anchor="end" font-size="10.5">1</text>
<text x="1735" y="857.1" font-size="11.5">24V+</text>
<line class="rule" x1="1707" y1="865" x2="1987" y2="865"/>
<text class="muted" x="1719" y="881.1" text-anchor="end" font-size="10.5">2</text>
<text x="1735" y="881.1" font-size="11.5">24V-</text>
<line class="rule" x1="1707" y1="889" x2="1987" y2="889"/>
<text class="faint" x="1719" y="905.1" text-anchor="end" font-size="10.5">3</text>
<text class="faint" x="1735" y="905.1" font-size="11.5">VEDIRECT</text>
<line class="rule" x1="1697" y1="913" x2="1997" y2="913" stroke-opacity="1"/>
<text class="muted" x="1709" y="932" font-size="10">Input side: see truck_systems.yml</text>
<text class="muted" x="1709" y="946" font-size="10">Non-isolated: one common GND terminal shared by input</text>
<text class="muted" x="1709" y="960" font-size="10">and output</text>
<text class="muted" x="1709" y="974" font-size="10">Current capped at 50A: ~650W from a 12-13V alternator</text>
<text class="muted" x="1709" y="988" font-size="10">(~23A out at 28V);</text>
<text class="muted" x="1709" y="1002" font-size="10">the full 1400W only with the future 24V alternator on the</text>
<text class="muted" x="1709" y="1016" font-size="10">input</text>
<rect class="card" x="1772" y="76" width="150" height="128" rx="9"/>
<rect x="1784" y="88" width="10" height="10" rx="2.5" style="fill:#9aa1aa"/>
<text x="1800" y="97" font-size="13" font-weight="600">AIR_CON</text>
<text class="muted" x="1784" y="115" font-size="10.5">24V Air Conditioner</text>
<text class="muted" x="1794" y="148.1" text-anchor="end" font-size="10.5">1</text>
<text x="1810" y="148.1" font-size="11.5">24V</text>
<line class="rule" x1="1782" y1="156" x2="1912" y2="156"/>
<text class="muted" x="1794" y="172.1" text-anchor="end" font-size="10.5">2</text>
<text x="1810" y="172.1" font-size="11.5">GND</text>
<line class="rule" x1="1772" y1="180" x2="1922" y2="180" stroke-opacity="1"/>
<text class="muted" x="1784" y="199" font-size="10">35A rated current at 24V</text>
<rect class="card" x="1772" y="239" width="150" height="104" rx="9"/>
<rect x="1784" y="251" width="10" height="10" rx="2.5" style="fill:#9aa1aa"/>
<text x="1800" y="260" font-size="13" font-weight="600">FUSE_PANEL_A</text>
<text class="muted" x="1784" y="278" font-size="10.5">Fuse Panel</text>
<text class="muted" x="1794" y="311.1" text-anchor="end" font-size="10.5">1</text>
<text x="1810" y="311.1" font-size="11.5">24V</text>
<line class="rule" x1="1782" y1="319" x2="1912" y2="319"/>
<text class="muted" x="1794" y="335.1" text-anchor="end" font-size="10.5">2</text>
<text x="1810" y="335.1" font-size="11.5">GND</text>
<rect class="card" x="1772" y="375" width="150" height="104" rx="9"/>
<rect x="1784" y="387" width="10" height="10" rx="2.5" style="fill:#9aa1aa"/>
<text x="1800" y="396" font-size="13" font-weight="600">FUSE_PANEL_B</text>
<text class="muted" x="1784" y="414" font-size="10.5">Fuse Panel</text>
<text class="muted" x="1794" y="447.1" text-anchor="end" font-size="10.5">1</text>
<text x="1810" y="447.1" font-size="11.5">24V</text>
<line class="rule" x1="1782" y1="455" x2="1912" y2="455"/>
<text class="muted" x="1794" y="471.1" text-anchor="end" font-size="10.5">2</text>
<text x="1810" y="471.1" font-size="11.5">GND</text>
<rect class="card" x="337" y="947" width="238" height="402" rx="9"/>
<rect x="349" y="959" width="10" height="10" rx="2.5" style="fill:#8e939b"/>
<text x="365" y="968" font-size="13" font-weight="600">JK_BMS</text>
<text class="muted" x="349" y="986" font-size="10.5">JK-PB2A16S20PV19 BMS · Active Balancer</text>
<text class="muted" x="359" y="1019.1" text-anchor="end" font-size="10.5">1</text>
<text x="375" y="1019.1" font-size="11.5">B-1</text>
<line class="rule" x1="347" y1="1027" x2="565" y2="1027"/>
<text class="muted" x="359" y="1043.1" text-anchor="end" font-size="10.5">2</text>
<text x="375" y="1043.1" font-size="11.5">B-2</text>
<line class="rule" x1="347" y1="1051" x2="565" y2="1051"/>
<text class="muted" x="359" y="1067.1" text-anchor="end" font-size="10.5">3</text>
<text x="375" y="1067.1" font-size="11.5">P-1</text>
<line class="rule" x1="347" y1="1075" x2="565" y2="1075"/>
<text class="muted" x="359" y="1091.1" text-anchor="end" font-size="10.5">4</text>
<text x="375" y="1091.1" font-size="11.5">P-2</text>
<line class="rule" x1="347" y1="1099" x2="565" y2="1099"/>
<text class="muted" x="359" y="1115.1" text-anchor="end" font-size="10.5">5</text>
<text x="375" y="1115.1" font-size="11.5">CAN_H</text>
<line class="rule" x1="347" y1="1123" x2="565" y2="1123"/>
<text class="muted" x="359" y="1139.1" text-anchor="end" font-size="10.5">6</text>
<text x="375" y="1139.1" font-size="11.5">CAN_L</text>
<line class="rule" x1="347" y1="1147" x2="565" y2="1147"/>
<text class="muted" x="359" y="1163.1" text-anchor="end" font-size="10.5">7</text>
<text x="375" y="1163.1" font-size="11.5">CAN_GND</text>
<line class="rule" x1="337" y1="1171" x2="575" y2="1171" stroke-opacity="1"/>
<text class="muted" x="349" y="1190" font-size="10">BATT-: internal connection to battery B-</text>
<text class="muted" x="349" y="1204" font-size="10">(shown as arrow, no separate cable)</text>
<text class="muted" x="349" y="1218" font-size="10">P-1, P-2: dual M6 negative output terminals</text>
<text class="muted" x="349" y="1232" font-size="10">CAN port connects directly to the Cerbo GX</text>
<text class="muted" x="349" y="1246" font-size="10">BMS-Can port.</text>
<text class="muted" x="349" y="1260" font-size="10">Set the BMS CAN protocol to option 4</text>
<text class="muted" x="349" y="1274" font-size="10">(Victron).</text>
<text class="muted" x="349" y="1288" font-size="10">BMS-side RJ45: pin 4 CAN-H, pin 5 CAN-L.</text>
<text class="muted" x="349" y="1302" font-size="10">GND is pin 2 or pin 6</text>
<text class="muted" x="349" y="1316" font-size="10">depending on variant -- meter it before</text>
<text class="muted" x="349" y="1330" font-size="10">crimping. JK RJ45 labelling</text>
<text class="muted" x="349" y="1344" font-size="10">is documented as wrong on some units.</text>
<rect class="card" x="749" y="872" width="174" height="250" rx="9"/>
<rect x="761" y="884" width="10" height="10" rx="2.5" style="fill:#36b7ff"/>
<text x="777" y="893" font-size="13" font-weight="600">SMARTSHUNT_300A</text>
<text class="muted" x="761" y="911" font-size="10.5">300A SmartShunt</text>
<text class="muted" x="771" y="944.1" text-anchor="end" font-size="10.5">1</text>
<text x="787" y="944.1" font-size="11.5">BATT-</text>
<line class="rule" x1="759" y1="952" x2="913" y2="952"/>
<text class="muted" x="771" y="968.1" text-anchor="end" font-size="10.5">2</text>
<text x="787" y="968.1" font-size="11.5">LOAD-</text>
<line class="rule" x1="759" y1="976" x2="913" y2="976"/>
<text class="faint" x="771" y="992.1" text-anchor="end" font-size="10.5">3</text>
<text class="faint" x="787" y="992.1" font-size="11.5">VEDIRECT</text>
<line class="rule" x1="749" y1="1000" x2="923" y2="1000" stroke-opacity="1"/>
<text class="muted" x="761" y="1019" font-size="10">BATT- terminal: connects to</text>
<text class="muted" x="761" y="1033" font-size="10">battery negative via BMS</text>
<text class="muted" x="761" y="1047" font-size="10">LOAD-</text>
<text class="muted" x="761" y="1061" font-size="10">LOAD- terminal: all system</text>
<text class="muted" x="761" y="1075" font-size="10">negative returns connect here</text>
<text class="muted" x="761" y="1089" font-size="10">All negative current passes</text>
<text class="muted" x="761" y="1103" font-size="10">through BATT- for</text>
<text class="muted" x="761" y="1117" font-size="10">measurement</text>
<rect class="card" x="761" y="445" width="150" height="132" rx="9"/>
<rect x="773" y="457" width="10" height="10" rx="2.5" style="fill:#f3f3f1"/>
<text x="789" y="466" font-size="13" font-weight="600">CHASSIS_GND</text>
<text class="muted" x="773" y="484" font-size="10.5">Chassis Ground Point</text>
<text class="muted" x="783" y="517.1" text-anchor="end" font-size="10.5">1</text>
<text x="799" y="517.1" font-size="11.5">GND</text>
<line class="rule" x1="761" y1="525" x2="911" y2="525" stroke-opacity="1"/>
<text class="muted" x="773" y="544" font-size="10">Single M10 stud</text>
<text class="muted" x="773" y="558" font-size="10">connection point for</text>
<text class="muted" x="773" y="572" font-size="10">chassis grounding</text>
<rect class="card" x="1107" y="445" width="170" height="238" rx="9"/>
<rect x="1119" y="457" width="10" height="10" rx="2.5" style="fill:#f3f3f1"/>
<text x="1135" y="466" font-size="13" font-weight="600">BUS_BAR_GND</text>
<text class="muted" x="1119" y="484" font-size="10.5">24V Negative 6-Way Bus Bar</text>
<text class="muted" x="1129" y="517.1" text-anchor="end" font-size="10.5">1</text>
<text x="1145" y="517.1" font-size="11.5">1</text>
<line class="rule" x1="1117" y1="525" x2="1267" y2="525"/>
<text class="muted" x="1129" y="541.1" text-anchor="end" font-size="10.5">2</text>
<text x="1145" y="541.1" font-size="11.5">2</text>
<line class="rule" x1="1117" y1="549" x2="1267" y2="549"/>
<text class="muted" x="1129" y="565.1" text-anchor="end" font-size="10.5">3</text>
<text x="1145" y="565.1" font-size="11.5">3</text>
<line class="rule" x1="1117" y1="573" x2="1267" y2="573"/>
<text class="muted" x="1129" y="589.1" text-anchor="end" font-size="10.5">4</text>
<text x="1145" y="589.1" font-size="11.5">4</text>
<line class="rule" x1="1117" y1="597" x2="1267" y2="597"/>
<text class="muted" x="1129" y="613.1" text-anchor="end" font-size="10.5">5</text>
<text x="1145" y="613.1" font-size="11.5">5</text>
<line class="rule" x1="1117" y1="621" x2="1267" y2="621"/>
<text class="muted" x="1129" y="637.1" text-anchor="end" font-size="10.5">6</text>
<text x="1145" y="637.1" font-size="11.5">6</text>
<line class="rule" x1="1107" y1="645" x2="1277" y2="645" stroke-opacity="1"/>
<text class="muted" x="1119" y="664" font-size="10">6x M8 threaded studs for</text>
<text class="muted" x="1119" y="678" font-size="10">negative connections</text>
<rect class="card" x="2111" y="511" width="286" height="128" rx="9"/>
<rect x="2123" y="523" width="10" height="10" rx="2.5" style="fill:#f0c419"/>
<text x="2139" y="532" font-size="13" font-weight="600">SOLAR_ARRAY</text>
<text class="muted" x="2123" y="550" font-size="10.5">3x 440W Solar Panels · Series String, Roof-mounted</text>
<text class="muted" x="2133" y="583.1" text-anchor="end" font-size="10.5">1</text>
<text x="2149" y="583.1" font-size="11.5">PV+</text>
<line class="rule" x1="2121" y1="591" x2="2387" y2="591"/>
<text class="muted" x="2133" y="607.1" text-anchor="end" font-size="10.5">2</text>
<text x="2149" y="607.1" font-size="11.5">PV-</text>
<line class="rule" x1="2111" y1="615" x2="2397" y2="615" stroke-opacity="1"/>
<text class="muted" x="2123" y="634" font-size="10">3x panels in series: Voc approx 105V (3 x 35V), Isc 16A</text>
<rect class="card" x="1097" y="1130" width="190" height="446" rx="9"/>
<rect x="1109" y="1142" width="10" height="10" rx="2.5" style="fill:#36b7ff"/>
<text x="1125" y="1151" font-size="13" font-weight="600">CERBO_GX_CAN</text>
<text class="muted" x="1109" y="1169" font-size="10.5">Cerbo GX · BMS-Can Port (RJ45)</text>
<text class="muted" x="1119" y="1202.1" text-anchor="end" font-size="10.5">1</text>
<text x="1135" y="1202.1" font-size="11.5">GND</text>
<line class="rule" x1="1107" y1="1210" x2="1277" y2="1210"/>
<text class="muted" x="1119" y="1226.1" text-anchor="end" font-size="10.5">2</text>
<text x="1135" y="1226.1" font-size="11.5">CAN_H</text>
<line class="rule" x1="1107" y1="1234" x2="1277" y2="1234"/>
<text class="muted" x="1119" y="1250.1" text-anchor="end" font-size="10.5">3</text>
<text x="1135" y="1250.1" font-size="11.5">CAN_L</text>
<line class="rule" x1="1097" y1="1258" x2="1287" y2="1258" stroke-opacity="1"/>
<text class="muted" x="1109" y="1277" font-size="10">Victron-side RJ45 pinout --</text>
<text class="muted" x="1109" y="1291" font-size="10">identical for Type A and Type B:</text>
<text class="muted" x="1109" y="1305" font-size="10">- Pin 3: GND</text>
<text class="muted" x="1109" y="1319" font-size="10">- Pin 7: CAN-H</text>
<text class="muted" x="1109" y="1333" font-size="10">- Pin 8: CAN-L</text>
<text class="muted" x="1109" y="1347" font-size="10">Cable is self-terminated, not the</text>
<text class="muted" x="1109" y="1361" font-size="10">Victron ASS030720018.</text>
<text class="muted" x="1109" y="1375" font-size="10">Wire BMS pin 4 to Cerbo pin 7,</text>
<text class="muted" x="1109" y="1389" font-size="10">BMS pin 5 to Cerbo pin 8,</text>
<text class="muted" x="1109" y="1403" font-size="10">and BMS GND to Cerbo pin 3.</text>
<text class="muted" x="1109" y="1417" font-size="10">A straight-through Ethernet patch</text>
<text class="muted" x="1109" y="1431" font-size="10">lead will NOT work: CAN moves</text>
<text class="muted" x="1109" y="1445" font-size="10">from pins 4/5 at the BMS to pins</text>
<text class="muted" x="1109" y="1459" font-size="10">7/8 at the Cerbo.</text>
<text class="muted" x="1109" y="1473" font-size="10">Type A and Type B differ only in</text>
<text class="muted" x="1109" y="1487" font-size="10">the BMS-side GND pin (6 vs 2) --</text>
<text class="muted" x="1109" y="1501" font-size="10">meter the JK before crimping.</text>
<text class="muted" x="1109" y="1515" font-size="10">Set the port profile to CAN-bus</text>
<text class="muted" x="1109" y="1529" font-size="10">BMS (500 kbit/s), then enable</text>
<text class="muted" x="1109" y="1543" font-size="10">DVCC.</text>
<text class="muted" x="1109" y="1557" font-size="10">Confirm 120 ohm termination at</text>
<text class="muted" x="1109" y="1571" font-size="10">both ends of the bus.</text>
<rect class="card" x="1354" y="552" width="276" height="104" rx="9" stroke-dasharray="5 3"/>
<rect x="1366" y="564" width="10" height="10" rx="2.5" style="fill:#f74f43"/>
<text x="1382" y="573" font-size="13" font-weight="600">MPPT_BAT</text>
<text class="muted" x="1366" y="591" font-size="10.5">Silicone Flexible Twin-conductor · 16 mm² · 0.75 m</text>
<rect class="card" x="1354" y="737" width="276" height="104" rx="9" stroke-dasharray="5 3"/>
<rect x="1366" y="749" width="10" height="10" rx="2.5" style="fill:#f74f43"/>
<text x="1382" y="758" font-size="13" font-weight="600">ORION_24V</text>
<text class="muted" x="1366" y="776" font-size="10.5">Silicone Flexible Twin-conductor · 16 mm² · 0.75 m</text>
<rect class="card" x="1398" y="80" width="188" height="142" rx="9" stroke-dasharray="5 3"/>
<rect x="1410" y="92" width="10" height="10" rx="2.5" style="fill:#69c3f3"/>
<text x="1426" y="101" font-size="13" font-weight="600">AIR_CON_POWER</text>
<text class="muted" x="1410" y="119" font-size="10.5">Silicone Flexible Twin-conductor</text>
<line class="rule" x1="1398" y1="184" x2="1586" y2="184" stroke-opacity="1"/>
<text class="muted" x="1410" y="203" font-size="10">Supplied with air conditioner,</text>
<text class="muted" x="1410" y="217" font-size="10">verify gauge</text>
<rect class="card" x="1363" y="254" width="258" height="104" rx="9" stroke-dasharray="5 3"/>
<rect x="1375" y="266" width="10" height="10" rx="2.5" style="fill:#69c3f3"/>
<text x="1391" y="275" font-size="13" font-weight="600">FUSE_PANEL_POWER_A</text>
<text class="muted" x="1375" y="293" font-size="10.5">Silicone Flexible Twin-conductor · 16 mm² · 1 m</text>
<rect class="card" x="1363" y="390" width="258" height="104" rx="9" stroke-dasharray="5 3"/>
<rect x="1375" y="402" width="10" height="10" rx="2.5" style="fill:#69c3f3"/>
<text x="1391" y="411" font-size="13" font-weight="600">FUSE_PANEL_POWER_B</text>
<text class="muted" x="1375" y="429" font-size="10.5">Silicone Flexible Twin-conductor · 16 mm² · 1 m</text>
<rect class="card" x="727" y="1154" width="218" height="306" rx="9" stroke-dasharray="5 3"/>
<rect x="739" y="1166" width="10" height="10" rx="2.5" style="fill:#36b7ff"/>
<text x="755" y="1175" font-size="13" font-weight="600">BMS_CAN_CABLE</text>
<text class="muted" x="739" y="1193" font-size="10.5">Cat5e/Cat6 patch lead, self-terminated</text>
<line class="rule" x1="727" y1="1282" x2="945" y2="1282" stroke-opacity="1"/>
<text class="muted" x="739" y="1301" font-size="10">Self-terminated -- replaces the Victron</text>
<text class="muted" x="739" y="1315" font-size="10">ASS030720018 pre-made cable.</text>
<text class="muted" x="739" y="1329" font-size="10">JK BMS end: CAN-H pin 4, CAN-L pin 5,</text>
<text class="muted" x="739" y="1343" font-size="10">GND pin 2 or 6 (meter it)</text>
<text class="muted" x="739" y="1357" font-size="10">Cerbo GX end: CAN-H pin 7, CAN-L pin</text>
<text class="muted" x="739" y="1371" font-size="10">8, GND pin 3</text>
<text class="muted" x="739" y="1385" font-size="10">Not a straight-through lead: CAN</text>
<text class="muted" x="739" y="1399" font-size="10">crosses from pins 4/5 to pins 7/8.</text>
<text class="muted" x="739" y="1413" font-size="10">Victron Type A and Type B differ only in</text>
<text class="muted" x="739" y="1427" font-size="10">the BMS-side GND pin,</text>
<text class="muted" x="739" y="1441" font-size="10">6 versus 2, so that is the pin to verify</text>
<text class="muted" x="739" y="1455" font-size="10">before crimping.</text>
<path class="casing" d="M182,961 C262.6,961 267.4,888 348,888" stroke-width="9.7"/>
<path class="core" d="M182,961 C262.6,961 267.4,888 348,888" stroke="#e23b3b" stroke-width="7.3"/>
<path class="casing" d="M564,888 C687.1,888 623.9,680 747,680" stroke-width="9.7"/>
<path class="core" d="M564,888 C687.1,888 623.9,680 747,680" stroke="#e23b3b" stroke-width="7.3"/>
<path class="casing" d="M925,704 C967.7,704 951,657 978,624 C1012.2,582.2 1040.4,586.6 1064,538 C1096.6,471 1029.5,205 1104,205" stroke-width="9.7"/>
<path class="core" d="M925,704 C967.7,704 951,657 978,624 C1012.2,582.2 1040.4,586.6 1064,538 C1096.6,471 1029.5,205 1104,205" stroke="#e23b3b" stroke-width="7.3"/>
<path class="casing" d="M925,728 C1086.4,728 1143.4,772.6 1287,699 C1307.5,688.5 1331,620 1354,620" stroke-width="7.4"/>
<path class="core" d="M925,728 C1086.4,728 1143.4,772.6 1287,699 C1307.5,688.5 1331,620 1354,620" stroke="#e23b3b" stroke-width="5"/>
<path class="casing" d="M1630,620 C1692.7,620 1708.3,627 1771,627" stroke-width="7.4"/>
<path class="core" d="M1630,620 C1692.7,620 1708.3,627 1771,627" stroke="#e23b3b" stroke-width="5"/>
<path class="casing" d="M925,752 C949,752 1330,805 1354,805" stroke-width="7.4"/>
<path class="core" d="M925,752 C949,752 1330,805 1354,805" stroke="#e23b3b" stroke-width="5"/>
<path class="casing" d="M1630,805 C1666.6,805 1660.4,853 1697,853" stroke-width="7.4"/>
<path class="core" d="M1630,805 C1666.6,805 1660.4,853 1697,853" stroke="#e23b3b" stroke-width="5"/>
<path class="casing" d="M1280,253 C1310.2,253 1298.1,218.8 1320,198 C1349.6,169.9 1356.2,148 1397,148" stroke-width="5.4"/>
<path class="core" d="M1280,253 C1310.2,253 1298.1,218.8 1320,198 C1349.6,169.9 1356.2,148 1397,148" stroke="#e23b3b" stroke-width="3"/>
<path class="casing" d="M1587,148 C1668.8,148 1689.2,144 1771,144" stroke-width="5.4"/>
<path class="core" d="M1587,148 C1668.8,148 1689.2,144 1771,144" stroke="#e23b3b" stroke-width="3"/>
<path class="casing" d="M1280,277 C1321.6,277 1320.4,322 1362,322" stroke-width="7.4"/>
<path class="core" d="M1280,277 C1321.6,277 1320.4,322 1362,322" stroke="#e23b3b" stroke-width="5"/>
<path class="casing" d="M1622,322 C1688.6,322 1704.4,307 1771,307" stroke-width="7.4"/>
<path class="core" d="M1622,322 C1688.6,322 1704.4,307 1771,307" stroke="#e23b3b" stroke-width="5"/>
<path class="casing" d="M1280,301 C1358.7,301 1283.3,458 1362,458" stroke-width="7.4"/>
<path class="core" d="M1280,301 C1358.7,301 1283.3,458 1362,458" stroke="#e23b3b" stroke-width="5"/>
<path class="casing" d="M1622,458 C1688.6,458 1704.4,443 1771,443" stroke-width="7.4"/>
<path class="core" d="M1622,458 C1688.6,458 1704.4,443 1771,443" stroke="#e23b3b" stroke-width="5"/>
<path class="casing case-bk" d="M182,985 C252.2,985 266.8,1015 337,1015" stroke-width="8.2"/>
<path class="core" d="M182,985 C252.2,985 266.8,1015 337,1015" stroke="#141518" stroke-width="5.8"/>
<path class="casing case-bk" d="M182,985 C209.4,985 191.1,1023.6 215,1037 C262.3,1063.5 282.8,1039 337,1039" stroke-width="8.2"/>
<path class="core" d="M182,985 C209.4,985 191.1,1023.6 215,1037 C262.3,1063.5 282.8,1039 337,1039" stroke="#141518" stroke-width="5.8"/>
<path class="casing case-bk" d="M575,1063 C605.8,1063 585.4,1022.9 608,1002 C658,955.8 680,940 748,940" stroke-width="8.2"/>
<path class="core" d="M575,1063 C605.8,1063 585.4,1022.9 608,1002 C658,955.8 680,940 748,940" stroke="#141518" stroke-width="5.8"/>
<path class="casing case-bk" d="M575,1087 C634.2,1087 650.3,1067 694,1027 C727.6,996.3 702.5,940 748,940" stroke-width="8.2"/>
<path class="core" d="M575,1087 C634.2,1087 650.3,1067 694,1027 C727.6,996.3 702.5,940 748,940" stroke="#141518" stroke-width="5.8"/>
<path class="casing case-bk" d="M912,513 C998.2,513 1019.8,513 1106,513" stroke-width="7.4"/>
<path class="core" d="M912,513 C998.2,513 1019.8,513 1106,513" stroke="#141518" stroke-width="5"/>
<path class="casing case-bk" d="M1278,537 C1370.7,537 1269.3,346 1362,346" stroke-width="7.4"/>
<path class="core" d="M1278,537 C1370.7,537 1269.3,346 1362,346" stroke="#141518" stroke-width="5"/>
<path class="casing case-bk" d="M1622,346 C1688.6,346 1704.4,331 1771,331" stroke-width="7.4"/>
<path class="core" d="M1622,346 C1688.6,346 1704.4,331 1771,331" stroke="#141518" stroke-width="5"/>
<path class="casing case-bk" d="M1278,561 C1329.3,561 1310.8,482 1362,482" stroke-width="7.4"/>
<path class="core" d="M1278,561 C1329.3,561 1310.8,482 1362,482" stroke="#141518" stroke-width="5"/>
<path class="casing case-bk" d="M1622,482 C1688.6,482 1704.4,467 1771,467" stroke-width="7.4"/>
<path class="core" d="M1622,482 C1688.6,482 1704.4,467 1771,467" stroke="#141518" stroke-width="5"/>
<path class="casing case-bk" d="M924,964 C970.7,964 1059.3,585 1106,585" stroke-width="9.7"/>
<path class="core" d="M924,964 C970.7,964 1059.3,585 1106,585" stroke="#141518" stroke-width="7.3"/>
<path class="casing case-bk" d="M1278,633 C1312.1,633 1319.9,644 1354,644" stroke-width="7.4"/>
<path class="core" d="M1278,633 C1312.1,633 1319.9,644 1354,644" stroke="#141518" stroke-width="5"/>
<path class="casing case-bk" d="M1630,644 C1692.7,644 1708.3,651 1771,651" stroke-width="7.4"/>
<path class="core" d="M1630,644 C1692.7,644 1708.3,651 1771,651" stroke="#141518" stroke-width="5"/>
<path class="casing case-bk" d="M1278,609 C1329.7,609 1302.3,829 1354,829" stroke-width="7.4"/>
<path class="core" d="M1278,609 C1329.7,609 1302.3,829 1354,829" stroke="#141518" stroke-width="5"/>
<path class="casing case-bk" d="M1630,829 C1666.6,829 1660.4,877 1697,877" stroke-width="7.4"/>
<path class="core" d="M1630,829 C1666.6,829 1660.4,877 1697,877" stroke="#141518" stroke-width="5"/>
<path class="casing case-bk" d="M1278,513 C1309.7,513 1341,266.9 1354,238 C1368.4,206.1 1362,172 1397,172" stroke-width="5.4"/>
<path class="core" d="M1278,513 C1309.7,513 1341,266.9 1354,238 C1368.4,206.1 1362,172 1397,172" stroke="#141518" stroke-width="3"/>
<path class="casing case-bk" d="M1587,172 C1668.8,172 1689.2,168 1771,168" stroke-width="5.4"/>
<path class="core" d="M1587,172 C1668.8,172 1689.2,168 1771,168" stroke="#141518" stroke-width="3"/>
<path class="casing" d="M1923,579 C2006.6,579 2027.4,579 2111,579" stroke-width="6.2"/>
<path class="core" d="M1923,579 C2006.6,579 2027.4,579 2111,579" stroke="#e23b3b" stroke-width="3.8"/>
<path class="casing case-bk" d="M1923,603 C1991.9,603 2009.1,605 2078,604 C2092.7,603.8 2096.3,603 2111,603" stroke-width="6.2"/>
<path class="core" d="M1923,603 C1991.9,603 2009.1,605 2078,604 C2092.7,603.8 2096.3,603 2111,603" stroke="#141518" stroke-width="3.8"/>
<path class="casing" d="M575,1111 C629.7,1111 652.8,1106.1 694,1142 C723,1167.3 688.5,1222 727,1222" stroke-width="5.4"/>
<path class="core" d="M575,1111 C629.7,1111 652.8,1106.1 694,1142 C723,1167.3 688.5,1222 727,1222" stroke="#f0c419" stroke-width="3"/>
<path class="casing" d="M945,1222 C1012.6,1222 1029.4,1222 1097,1222" stroke-width="5.4"/>
<path class="core" d="M945,1222 C1012.6,1222 1029.4,1222 1097,1222" stroke="#f0c419" stroke-width="3"/>
<path class="casing" d="M575,1135 C590.2,1135 682.6,1192 694,1202 C712.4,1218.1 702.6,1246 727,1246" stroke-width="5.4"/>
<path class="core" d="M575,1135 C590.2,1135 682.6,1192 694,1202 C712.4,1218.1 702.6,1246 727,1246" stroke="#2f9f4f" stroke-width="3"/>
<path class="casing" d="M945,1246 C1012.6,1246 1029.4,1246 1097,1246" stroke-width="5.4"/>
<path class="core" d="M945,1246 C1012.6,1246 1029.4,1246 1097,1246" stroke="#2f9f4f" stroke-width="3"/>
<path class="casing case-wh" d="M575,1159 C600.5,1159 588.9,1189.1 608,1206 C652.9,1245.9 667,1270 727,1270" stroke-width="5.4"/>
<path class="core" d="M575,1159 C600.5,1159 588.9,1189.1 608,1206 C652.9,1245.9 667,1270 727,1270" stroke="#f3f3f1" stroke-width="3"/>
<path class="casing case-wh" d="M945,1270 C998.4,1270 1019.5,1283.5 1064,1254 C1088.1,1238 1068.1,1198 1097,1198" stroke-width="5.4"/>
<path class="core" d="M945,1270 C998.4,1270 1019.5,1283.5 1064,1254 C1088.1,1238 1068.1,1198 1097,1198" stroke="#f3f3f1" stroke-width="3"/>
<path class="casing" d="M1354,620 L1630,620" stroke-width="7.4"/>
<path class="core" d="M1354,620 L1630,620" stroke="#e23b3b" stroke-width="5"/>
<path class="casing case-bk" d="M1354,644 L1630,644" stroke-width="7.4"/>
<path class="core" d="M1354,644 L1630,644" stroke="#141518" stroke-width="5"/>
<path class="casing" d="M1354,805 L1630,805" stroke-width="7.4"/>
<path class="core" d="M1354,805 L1630,805" stroke="#e23b3b" stroke-width="5"/>
<path class="casing case-bk" d="M1354,829 L1630,829" stroke-width="7.4"/>
<path class="core" d="M1354,829 L1630,829" stroke="#141518" stroke-width="5"/>
<path class="casing" d="M1398,148 L1586,148" stroke-width="5.4"/>
<path class="core" d="M1398,148 L1586,148" stroke="#e23b3b" stroke-width="3"/>
<path class="casing case-bk" d="M1398,172 L1586,172" stroke-width="5.4"/>
<path class="core" d="M1398,172 L1586,172" stroke="#141518" stroke-width="3"/>
<path class="casing" d="M1363,322 L1621,322" stroke-width="7.4"/>
<path class="core" d="M1363,322 L1621,322" stroke="#e23b3b" stroke-width="5"/>
<path class="casing case-bk" d="M1363,346 L1621,346" stroke-width="7.4"/>
<path class="core" d="M1363,346 L1621,346" stroke="#141518" stroke-width="5"/>
<path class="casing" d="M1363,458 L1621,458" stroke-width="7.4"/>
<path class="core" d="M1363,458 L1621,458" stroke="#e23b3b" stroke-width="5"/>
<path class="casing case-bk" d="M1363,482 L1621,482" stroke-width="7.4"/>
<path class="core" d="M1363,482 L1621,482" stroke="#141518" stroke-width="5"/>
<path class="casing" d="M727,1222 L945,1222" stroke-width="5.4"/>
<path class="core" d="M727,1222 L945,1222" stroke="#f0c419" stroke-width="3"/>
<path class="casing" d="M727,1246 L945,1246" stroke-width="5.4"/>
<path class="core" d="M727,1246 L945,1246" stroke="#2f9f4f" stroke-width="3"/>
<path class="casing case-wh" d="M727,1270 L945,1270" stroke-width="5.4"/>
<path class="core" d="M727,1270 L945,1270" stroke="#f3f3f1" stroke-width="3"/>
<circle class="port" cx="182" cy="961" r="3.2"/>
<circle class="port" cx="348" cy="888" r="3.2"/>
<circle class="port" cx="564" cy="888" r="3.2"/>
<circle class="port" cx="747" cy="680" r="3.2"/>
<circle class="port" cx="925" cy="704" r="3.2"/>
<circle class="port" cx="1104" cy="205" r="3.2"/>
<circle class="port" cx="925" cy="728" r="3.2"/>
<circle class="port" cx="1771" cy="627" r="3.2"/>
<circle class="port" cx="925" cy="752" r="3.2"/>
<circle class="port" cx="1697" cy="853" r="3.2"/>
<circle class="port" cx="1280" cy="253" r="3.2"/>
<circle class="port" cx="1771" cy="144" r="3.2"/>
<circle class="port" cx="1280" cy="277" r="3.2"/>
<circle class="port" cx="1771" cy="307" r="3.2"/>
<circle class="port" cx="1280" cy="301" r="3.2"/>
<circle class="port" cx="1771" cy="443" r="3.2"/>
<circle class="port" cx="182" cy="985" r="3.2"/>
<circle class="port" cx="337" cy="1015" r="3.2"/>
<circle class="port" cx="337" cy="1039" r="3.2"/>
<circle class="port" cx="575" cy="1063" r="3.2"/>
<circle class="port" cx="748" cy="940" r="3.2"/>
<circle class="port" cx="575" cy="1087" r="3.2"/>
<circle class="port" cx="912" cy="513" r="3.2"/>
<circle class="port" cx="1106" cy="513" r="3.2"/>
<circle class="port" cx="1278" cy="537" r="3.2"/>
<circle class="port" cx="1771" cy="331" r="3.2"/>
<circle class="port" cx="1278" cy="561" r="3.2"/>
<circle class="port" cx="1771" cy="467" r="3.2"/>
<circle class="port" cx="924" cy="964" r="3.2"/>
<circle class="port" cx="1106" cy="585" r="3.2"/>
<circle class="port" cx="1278" cy="633" r="3.2"/>
<circle class="port" cx="1771" cy="651" r="3.2"/>
<circle class="port" cx="1278" cy="609" r="3.2"/>
<circle class="port" cx="1697" cy="877" r="3.2"/>
<circle class="port" cx="1278" cy="513" r="3.2"/>
<circle class="port" cx="1771" cy="168" r="3.2"/>
<circle class="port" cx="1923" cy="579" r="3.2"/>
<circle class="port" cx="2111" cy="579" r="3.2"/>
<circle class="port" cx="1923" cy="603" r="3.2"/>
<circle class="port" cx="2111" cy="603" r="3.2"/>
<circle class="port" cx="575" cy="1111" r="3.2"/>
<circle class="port" cx="1097" cy="1222" r="3.2"/>
<circle class="port" cx="575" cy="1135" r="3.2"/>
<circle class="port" cx="1097" cy="1246" r="3.2"/>
<circle class="port" cx="575" cy="1159" r="3.2"/>
<circle class="port" cx="1097" cy="1198" r="3.2"/>
<rect class="tag" x="216" y="881.6" width="87" height="17" rx="8.5"/>
<text x="259.5" y="893.7" text-anchor="middle" font-size="10" font-weight="500">50 mm² · 1.5 m</text>
<rect class="tag" x="608" y="684.6" width="86" height="17" rx="8.5"/>
<text x="651" y="696.7" text-anchor="middle" font-size="10" font-weight="500">50 mm² · 0.1 m</text>
<rect class="tag" x="978" y="521" width="86" height="17" rx="8.5"/>
<text x="1021" y="533.1" text-anchor="middle" font-size="10" font-weight="500">50 mm² · 0.1 m</text>
<rect class="tag" x="215" y="970.6" width="89" height="17" rx="8.5"/>
<text x="259.5" y="982.7" text-anchor="middle" font-size="10" font-weight="500">25 mm² · 0.2 m</text>
<rect class="tag" x="215" y="1020" width="89" height="17" rx="8.5"/>
<text x="259.5" y="1032.1" text-anchor="middle" font-size="10" font-weight="500">25 mm² · 0.2 m</text>
<rect class="tag" x="612" y="929.1" width="78" height="17" rx="8.5"/>
<text x="651" y="941.2" text-anchor="middle" font-size="10" font-weight="500">25 mm² · 1 m</text>
<rect class="tag" x="612" y="1010" width="78" height="17" rx="8.5"/>
<text x="651" y="1022.1" text-anchor="middle" font-size="10" font-weight="500">25 mm² · 1 m</text>
<rect class="tag" x="978.5" y="496" width="85" height="17" rx="8.5"/>
<text x="1021" y="508.1" text-anchor="middle" font-size="10" font-weight="500">16 mm² · 1.5 m</text>
<rect class="tag" x="978" y="631.5" width="86" height="17" rx="8.5"/>
<text x="1021" y="643.6" text-anchor="middle" font-size="10" font-weight="500">50 mm² · 0.1 m</text>
<rect class="tag" x="2030" y="562" width="48" height="17" rx="8.5"/>
<text x="2054" y="574.1" text-anchor="middle" font-size="10" font-weight="500">6 mm²</text>
<rect class="tag" x="2030" y="587" width="48" height="17" rx="8.5"/>
<text x="2054" y="599.1" text-anchor="middle" font-size="10" font-weight="500">6 mm²</text>
<rect class="tag" x="1474" y="611.5" width="36" height="17" rx="8.5"/>
<text x="1492" y="623.6" text-anchor="middle" font-size="10" font-weight="500">24V</text>
<rect class="tag" x="1472.5" y="635.5" width="39" height="17" rx="8.5"/>
<text x="1492" y="647.6" text-anchor="middle" font-size="10" font-weight="500">GND</text>
<rect class="tag" x="1474" y="796.5" width="36" height="17" rx="8.5"/>
<text x="1492" y="808.6" text-anchor="middle" font-size="10" font-weight="500">24V</text>
<rect class="tag" x="1472.5" y="820.5" width="39" height="17" rx="8.5"/>
<text x="1492" y="832.6" text-anchor="middle" font-size="10" font-weight="500">GND</text>
<rect class="tag" x="1474" y="139.5" width="36" height="17" rx="8.5"/>
<text x="1492" y="151.6" text-anchor="middle" font-size="10" font-weight="500">24V</text>
<rect class="tag" x="1472.5" y="163.5" width="39" height="17" rx="8.5"/>
<text x="1492" y="175.6" text-anchor="middle" font-size="10" font-weight="500">GND</text>
<rect class="tag" x="1474" y="313.5" width="36" height="17" rx="8.5"/>
<text x="1492" y="325.6" text-anchor="middle" font-size="10" font-weight="500">24V</text>
<rect class="tag" x="1472.5" y="337.5" width="39" height="17" rx="8.5"/>
<text x="1492" y="349.6" text-anchor="middle" font-size="10" font-weight="500">GND</text>
<rect class="tag" x="1474" y="449.5" width="36" height="17" rx="8.5"/>
<text x="1492" y="461.6" text-anchor="middle" font-size="10" font-weight="500">24V</text>
<rect class="tag" x="1472.5" y="473.5" width="39" height="17" rx="8.5"/>
<text x="1492" y="485.6" text-anchor="middle" font-size="10" font-weight="500">GND</text>
<rect class="tag" x="810.5" y="1213.5" width="51" height="17" rx="8.5"/>
<text x="836" y="1225.6" text-anchor="middle" font-size="10" font-weight="500">CAN_H</text>
<rect class="tag" x="811.5" y="1237.5" width="49" height="17" rx="8.5"/>
<text x="836" y="1249.6" text-anchor="middle" font-size="10" font-weight="500">CAN_L</text>
<rect class="tag" x="816.5" y="1261.5" width="39" height="17" rx="8.5"/>
<text x="836" y="1273.6" text-anchor="middle" font-size="10" font-weight="500">GND</text>
</svg>
