<svg xmlns="http://www.w3.org/2000/svg" viewBox="0 0 1280 420" width="1280" height="420" role="img" aria-label="ferrule: wiring and plumbing diagrams from YAML">
<rect width="1280" height="420" rx="18" fill="#eef0f3"/>
<text x="72" y="196" font-family="Inter, -apple-system, 'Segoe UI', Helvetica, Arial, sans-serif" font-size="104" font-weight="600" letter-spacing="-3" fill="#1b1f24">ferrule</text>
<text x="76" y="246" font-family="Inter, -apple-system, 'Segoe UI', Helvetica, Arial, sans-serif" font-size="25" fill="#5e6670">Wiring and plumbing diagrams from YAML.</text>
<text x="76" y="284" font-family="Inter, -apple-system, 'Segoe UI', Helvetica, Arial, sans-serif" font-size="17" fill="#9aa1aa">One renderer · light and dark · the same bytes on every machine</text>
<rect x="1010" y="74" width="214" height="220" rx="10" fill="#ffffff" stroke="#d5d9df"/>
<rect x="1024" y="89" width="11" height="11" rx="3" fill="#ff8a1f"/>
<text x="1042" y="99" font-family="Inter, -apple-system, 'Segoe UI', Helvetica, Arial, sans-serif" font-size="15" font-weight="600" fill="#1b1f24">HEATING_CONN</text>
<text x="1024" y="119" font-family="Inter, -apple-system, 'Segoe UI', Helvetica, Arial, sans-serif" font-size="12" fill="#5e6670">Deutsch DT · 8-pin</text>
<text x="1042" y="155.5" text-anchor="end" font-family="Inter, -apple-system, 'Segoe UI', Helvetica, Arial, sans-serif" font-size="12" fill="#5e6670">1</text>
<text x="1054" y="155.5" font-family="Inter, -apple-system, 'Segoe UI', Helvetica, Arial, sans-serif" font-size="13" fill="#1b1f24">HEATER_EN</text>
<line x1="1022" y1="166.0" x2="1212" y2="166.0" stroke="#d5d9df" stroke-opacity=".6"/>
<text x="1042" y="185.5" text-anchor="end" font-family="Inter, -apple-system, 'Segoe UI', Helvetica, Arial, sans-serif" font-size="12" fill="#5e6670">2</text>
<text x="1054" y="185.5" font-family="Inter, -apple-system, 'Segoe UI', Helvetica, Arial, sans-serif" font-size="13" fill="#1b1f24">UNDERFLOOR_PUMP</text>
<line x1="1022" y1="196.0" x2="1212" y2="196.0" stroke="#d5d9df" stroke-opacity=".6"/>
<text x="1042" y="215.5" text-anchor="end" font-family="Inter, -apple-system, 'Segoe UI', Helvetica, Arial, sans-serif" font-size="12" fill="#5e6670">3</text>
<text x="1054" y="215.5" font-family="Inter, -apple-system, 'Segoe UI', Helvetica, Arial, sans-serif" font-size="13" fill="#1b1f24">HEATER_BULB</text>
<line x1="1022" y1="226.0" x2="1212" y2="226.0" stroke="#d5d9df" stroke-opacity=".6"/>
<text x="1042" y="245.5" text-anchor="end" font-family="Inter, -apple-system, 'Segoe UI', Helvetica, Arial, sans-serif" font-size="12" fill="#5e6670">7</text>
<text x="1054" y="245.5" font-family="Inter, -apple-system, 'Segoe UI', Helvetica, Arial, sans-serif" font-size="13" fill="#1b1f24">SIGNAL_GND</text>
<line x1="1022" y1="256.0" x2="1212" y2="256.0" stroke="#d5d9df" stroke-opacity=".6"/>
<text x="1042" y="275.5" text-anchor="end" font-family="Inter, -apple-system, 'Segoe UI', Helvetica, Arial, sans-serif" font-size="12" fill="#5e6670">8</text>
<text x="1054" y="275.5" font-family="Inter, -apple-system, 'Segoe UI', Helvetica, Arial, sans-serif" font-size="13" fill="#1b1f24">GND</text>
<path d="M640,104 L884.0,104.0 Q900,104 900.0,120.0 L900.0,135.0 Q900,151.0 916.0,151.0 L976,151.0" fill="none" stroke="#7f8792" stroke-width="7.4"/>
<path d="M640,104 L884.0,104.0 Q900,104 900.0,120.0 L900.0,135.0 Q900,151.0 916.0,151.0 L976,151.0" fill="none" stroke="#e23b3b" stroke-width="5"/>
<path d="M976,144.0 l12,-2 v18 l-12,-2 Z" fill="#e23b3b" stroke="#7f8792"/>
<rect x="988" y="147.0" width="20" height="8" rx="1.5" fill="#b9bfc7" stroke="#7f8792"/>
<circle cx="1010" cy="151.0" r="3.6" fill="#ffffff" stroke="#5e6670" stroke-width="1.3"/>
<path d="M640,146 L834.0,146.0 Q850,146 850.0,162.0 L850.0,165.0 Q850,181.0 866.0,181.0 L976,181.0" fill="none" stroke="#7f8792" stroke-width="7.4"/>
<path d="M640,146 L834.0,146.0 Q850,146 850.0,162.0 L850.0,165.0 Q850,181.0 866.0,181.0 L976,181.0" fill="none" stroke="#f3f3f1" stroke-width="5"/>
<path d="M976,174.0 l12,-2 v18 l-12,-2 Z" fill="#f3f3f1" stroke="#7f8792"/>
<rect x="988" y="177.0" width="20" height="8" rx="1.5" fill="#b9bfc7" stroke="#7f8792"/>
<circle cx="1010" cy="181.0" r="3.6" fill="#ffffff" stroke="#5e6670" stroke-width="1.3"/>
<path d="M640,232 L769.5,232.0 Q780,232 780.0,221.5 L780.0,221.5 Q780,211.0 790.5,211.0 L976,211.0" fill="none" stroke="#7f8792" stroke-width="7.4"/>
<path d="M640,232 L769.5,232.0 Q780,232 780.0,221.5 L780.0,221.5 Q780,211.0 790.5,211.0 L976,211.0" fill="none" stroke="#2f9f4f" stroke-width="5"/>
<path d="M640,232 L769.5,232.0 Q780,232 780.0,221.5 L780.0,221.5 Q780,211.0 790.5,211.0 L976,211.0" fill="none" stroke="#f0c419" stroke-width="2.6" stroke-dasharray="14 8"/>
<path d="M976,204.0 l12,-2 v18 l-12,-2 Z" fill="#2f9f4f" stroke="#7f8792"/>
<rect x="988" y="207.0" width="20" height="8" rx="1.5" fill="#b9bfc7" stroke="#7f8792"/>
<circle cx="1010" cy="211.0" r="3.6" fill="#ffffff" stroke="#5e6670" stroke-width="1.3"/>
<path d="M640,296 L804.0,296.0 Q820,296 820.0,280.0 L820.0,257.0 Q820,241.0 836.0,241.0 L976,241.0" fill="none" stroke="#7f8792" stroke-width="7.4"/>
<path d="M640,296 L804.0,296.0 Q820,296 820.0,280.0 L820.0,257.0 Q820,241.0 836.0,241.0 L976,241.0" fill="none" stroke="#f0c419" stroke-width="5"/>
<path d="M976,234.0 l12,-2 v18 l-12,-2 Z" fill="#f0c419" stroke="#7f8792"/>
<rect x="988" y="237.0" width="20" height="8" rx="1.5" fill="#b9bfc7" stroke="#7f8792"/>
<circle cx="1010" cy="241.0" r="3.6" fill="#ffffff" stroke="#5e6670" stroke-width="1.3"/>
<path d="M640,338 L854.0,338.0 Q870,338 870.0,322.0 L870.0,287.0 Q870,271.0 886.0,271.0 L976,271.0" fill="none" stroke="#7f8792" stroke-width="7.4"/>
<path d="M640,338 L854.0,338.0 Q870,338 870.0,322.0 L870.0,287.0 Q870,271.0 886.0,271.0 L976,271.0" fill="none" stroke="#141518" stroke-width="5"/>
<path d="M976,264.0 l12,-2 v18 l-12,-2 Z" fill="#141518" stroke="#7f8792"/>
<rect x="988" y="267.0" width="20" height="8" rx="1.5" fill="#b9bfc7" stroke="#7f8792"/>
<circle cx="1010" cy="271.0" r="3.6" fill="#ffffff" stroke="#5e6670" stroke-width="1.3"/>
<defs><linearGradient id="fade" x1="0" x2="1"><stop offset="0" stop-color="#eef0f3"/><stop offset="1" stop-color="#eef0f3" stop-opacity="0"/></linearGradient></defs>
<rect x="636" y="90" width="90" height="260" fill="url(#fade)"/>
<path d="M700,372 H1224" stroke="#7f8792" stroke-width="14" stroke-linecap="round"/>
<path d="M700,372 H1224" stroke="#c4773f" stroke-width="11" stroke-linecap="round"/>
<rect x="930" y="357" width="34" height="30" rx="3" fill="#c9a35a" stroke="#7f8792"/>
<line x1="939" y1="357" x2="939" y2="387" stroke="#7f8792" stroke-opacity=".55"/>
<line x1="947" y1="357" x2="947" y2="387" stroke="#7f8792" stroke-opacity=".55"/>
<line x1="955" y1="357" x2="955" y2="387" stroke="#7f8792" stroke-opacity=".55"/>
<rect x="1010" y="357" width="34" height="30" rx="3" fill="#c9a35a" stroke="#7f8792"/>
<line x1="1019" y1="357" x2="1019" y2="387" stroke="#7f8792" stroke-opacity=".55"/>
<line x1="1027" y1="357" x2="1027" y2="387" stroke="#7f8792" stroke-opacity=".55"/>
<line x1="1035" y1="357" x2="1035" y2="387" stroke="#7f8792" stroke-opacity=".55"/>
<rect x="964" y="361" width="46" height="22" rx="2" fill="#c9a35a" stroke="#7f8792"/>
<path d="M922,364 l8,-3 v22 l-8,-3 Z M1052,364 l-8,-3 v22 l8,-3 Z" fill="#e2c27a" stroke="#7f8792"/>
<rect x="700" y="360" width="120" height="24" fill="url(#fade)"/>
</svg>
