<svg xmlns="http://www.w3.org/2000/svg" class="mk mk-a" viewBox="0 0 2140 700" width="2140" height="700" role="img" aria-label="main_electrical, direction A">
<style>@import url("https://fonts.googleapis.com/css2?family=Inter:wght@400;500;600&amp;display=swap");
.mk-a{--bg:#eef0f3;--card:#ffffff;--card2:#f5f6f8;--line:#d5d9df;--text:#1b1f24;--muted:#5e6670;--faint:#9aa1aa;--casing:#7f8792;--case-bk:#7f8792;--case-wh:#7f8792;--tag-bg:#ffffff;--tag-text:#1b1f24;--grid:none}
@media (prefers-color-scheme: dark){.mk-a:not(.light){--bg:#121418;--card:#1c1f25;--card2:#23272e;--line:#323741;--text:#e8eaed;--muted:#9aa1ab;--faint:#626a75;--casing:#5d6570;--case-bk:#9aa1ab;--case-wh:#5d6570;--tag-bg:#23272e;--tag-text:#e8eaed;--grid:none}}
.mk-a.dark{--bg:#121418;--card:#1c1f25;--card2:#23272e;--line:#323741;--text:#e8eaed;--muted:#9aa1ab;--faint:#626a75;--casing:#5d6570;--case-bk:#9aa1ab;--case-wh:#5d6570;--tag-bg:#23272e;--tag-text:#e8eaed;--grid:none}
.mk-a text{font-family:'Inter', 'Helvetica Neue', Arial, sans-serif;fill:#1b1f24}
.mk-a .mono{font-family:'Inter', 'Helvetica Neue', Arial, sans-serif}
.mk-a .bg{fill:#eef0f3}
.mk-a .card{fill:#ffffff;stroke:#d5d9df;stroke-width:1}
.mk-a .card2{fill:#f5f6f8}
.mk-a .rule{stroke:#d5d9df;stroke-width:1}
.mk-a .muted{fill:#5e6670}
.mk-a .faint{fill:#9aa1aa}
.mk-a .casing{fill:none;stroke:#7f8792;stroke-linecap:butt;stroke-linejoin:round}
.mk-a .case-bk{stroke:#7f8792}
.mk-a .case-wh{stroke:#7f8792}
.mk-a .core{fill:none;stroke-linecap:butt;stroke-linejoin:round}
.mk-a .tag{fill:#ffffff;stroke:#d5d9df;stroke-width:1}
.mk-a .tagt{fill:#1b1f24}
.mk-a .port{fill:#ffffff;stroke:#5e6670;stroke-width:1.2}
.mk-a .term{fill:#1b1f24}
.mk-a .grid{fill:none}
</style>
<rect class="bg" width="2140" height="700"/>
<text x="40" y="38" font-size="20" font-weight="600">main_electrical</text>
<text class="muted" x="40" y="58" font-size="11.5">Part: battery, isolator, BMS, shunt and negative bus. Line weight follows gauge.</text>
<rect class="card" x="40" y="100" width="231.94" height="104" rx="9"/>
<rect x="52" y="112" width="10" height="10" rx="2.5" style="fill:#3b7be0"/>
<text x="68" y="121" font-size="13" font-weight="600">LIFEPO4_BATTERY</text>
<text class="muted" x="52" y="139" font-size="10.5">DIY LiFePO4 pack · 24 V</text>
<rect x="198.9" y="109" width="61.0" height="17" rx="8.5" style="fill:none;stroke:#d5d9df"/>
<text class="muted" x="229.4" y="121" text-anchor="middle" font-size="10.5">M6 studs</text>
<text class="muted" x="62" y="172.14" text-anchor="end" font-size="10.5" style="font-variant-numeric:tabular-nums">+</text>
<text class="" x="78" y="172.14" font-size="11.5">BAT+</text>
<line class="rule" x1="50" y1="180" x2="261.94" y2="180" stroke-opacity="0.55"/>
<text class="muted" x="62" y="196.14" text-anchor="end" font-size="10.5" style="font-variant-numeric:tabular-nums">−</text>
<text class="" x="78" y="196.14" font-size="11.5">BAT-</text>
<rect class="card" x="460" y="100.0" width="250.89999999999998" height="80" rx="9"/>
<rect x="472" y="112.0" width="10" height="10" rx="2.5" style="fill:#f74f43"/>
<text x="488" y="121.0" font-size="13" font-weight="600">BATTERY_ISOLATOR_300A</text>
<text class="muted" x="472" y="139.0" font-size="10.5">Main positive disconnect</text>
<rect x="667.3" y="109.0" width="31.6" height="17" rx="8.5" style="fill:none;stroke:#d5d9df"/>
<text class="muted" x="683.1" y="121.0" text-anchor="middle" font-size="10.5">M10</text>
<text class="muted" x="482" y="172.14" text-anchor="end" font-size="10.5" style="font-variant-numeric:tabular-nums"></text>
<text class="" x="498" y="172.14" font-size="11.5">IN / OUT · 275 A cont.</text>
<rect class="card" x="460" y="220.0" width="250" height="262" rx="9"/>
<rect x="472" y="232.0" width="10" height="10" rx="2.5" style="fill:#9aa0a6"/>
<text x="488" y="241.0" font-size="13" font-weight="600">JK_BMS</text>
<text class="muted" x="472" y="259.0" font-size="10.5">JK-PB2A16S20PV19 · active balancer</text>
<rect x="654.6" y="229.0" width="43.4" height="17" rx="8.5" style="fill:none;stroke:#d5d9df"/>
<text class="muted" x="676.3" y="241.0" text-anchor="middle" font-size="10.5">7-pin</text>
<text class="muted" x="482" y="292.14" text-anchor="end" font-size="10.5" style="font-variant-numeric:tabular-nums">1</text>
<text class="" x="498" y="292.14" font-size="11.5">B-1</text>
<line class="rule" x1="470" y1="300.0" x2="700" y2="300.0" stroke-opacity="0.55"/>
<text class="muted" x="482" y="316.14" text-anchor="end" font-size="10.5" style="font-variant-numeric:tabular-nums">2</text>
<text class="" x="498" y="316.14" font-size="11.5">B-2</text>
<line class="rule" x1="470" y1="324.0" x2="700" y2="324.0" stroke-opacity="0.55"/>
<text class="muted" x="482" y="340.14" text-anchor="end" font-size="10.5" style="font-variant-numeric:tabular-nums">3</text>
<text class="" x="498" y="340.14" font-size="11.5">P-1</text>
<line class="rule" x1="470" y1="348.0" x2="700" y2="348.0" stroke-opacity="0.55"/>
<text class="muted" x="482" y="364.14" text-anchor="end" font-size="10.5" style="font-variant-numeric:tabular-nums">4</text>
<text class="" x="498" y="364.14" font-size="11.5">P-2</text>
<line class="rule" x1="470" y1="372.0" x2="700" y2="372.0" stroke-opacity="0.55"/>
<text class="muted" x="482" y="388.14" text-anchor="end" font-size="10.5" style="font-variant-numeric:tabular-nums">5</text>
<text class="" x="498" y="388.14" font-size="11.5">CAN_H</text>
<line class="rule" x1="470" y1="396.0" x2="700" y2="396.0" stroke-opacity="0.55"/>
<text class="muted" x="482" y="412.14" text-anchor="end" font-size="10.5" style="font-variant-numeric:tabular-nums">6</text>
<text class="" x="498" y="412.14" font-size="11.5">CAN_L</text>
<line class="rule" x1="470" y1="420.0" x2="700" y2="420.0" stroke-opacity="0.55"/>
<text class="muted" x="482" y="436.14" text-anchor="end" font-size="10.5" style="font-variant-numeric:tabular-nums">7</text>
<text class="" x="498" y="436.14" font-size="11.5">CAN_GND</text>
<line class="rule" x1="460" y1="444.0" x2="710" y2="444.0"/>
<text class="muted" x="472" y="463.0" font-size="10">CAN protocol option 4 (Victron)</text>
<text class="muted" x="472" y="477.0" font-size="10">RJ45 GND is pin 2 or 6: meter it</text>
<rect class="card" x="900" y="100.0" width="230.42000000000002" height="176" rx="9"/>
<rect x="912" y="112.0" width="10" height="10" rx="2.5" style="fill:#9fdcfb"/>
<text x="928" y="121.0" font-size="13" font-weight="600">MIDI_FUSE_BLOCK_A</text>
<text class="muted" x="912" y="139.0" font-size="10.5">5-way MIDI fuse block</text>
<rect x="1075.0" y="109.0" width="43.4" height="17" rx="8.5" style="fill:none;stroke:#d5d9df"/>
<text class="muted" x="1096.7" y="121.0" text-anchor="middle" font-size="10.5">7-pin</text>
<text class="muted" x="922" y="172.14" text-anchor="end" font-size="10.5" style="font-variant-numeric:tabular-nums">1</text>
<text class="" x="938" y="172.14" font-size="11.5">FEED</text>
<line class="rule" x1="910" y1="180.0" x2="1120.42" y2="180.0" stroke-opacity="0.55"/>
<text class="muted" x="922" y="196.14" text-anchor="end" font-size="10.5" style="font-variant-numeric:tabular-nums">2</text>
<text class="" x="938" y="196.14" font-size="11.5">FEED_OUT</text>
<path d="M1130.42,192.0 h22 m-6,-4 l6,4 l-6,4" style="fill:none;stroke:#9aa1aa;stroke-width:1.4"/>
<text class="faint" x="1157.42" y="195.5" font-size="10.0">MIDI_FUSE_BLOCK_B</text>
<line class="rule" x1="910" y1="204.0" x2="1120.42" y2="204.0" stroke-opacity="0.55"/>
<text class="muted" x="922" y="220.14" text-anchor="end" font-size="10.5" style="font-variant-numeric:tabular-nums">3</text>
<text class="" x="938" y="220.14" font-size="11.5">OUT1</text>
<path d="M1130.42,216.0 h22 m-6,-4 l6,4 l-6,4" style="fill:none;stroke:#9aa1aa;stroke-width:1.4"/>
<text class="faint" x="1157.42" y="219.5" font-size="10.0">MPPT_150_45</text>
<line class="rule" x1="910" y1="228.0" x2="1120.42" y2="228.0" stroke-opacity="0.55"/>
<text class="muted" x="922" y="244.14" text-anchor="end" font-size="10.5" style="font-variant-numeric:tabular-nums">4</text>
<text class="" x="938" y="244.14" font-size="11.5">OUT2</text>
<path d="M1130.42,240.0 h22 m-6,-4 l6,4 l-6,4" style="fill:none;stroke:#9aa1aa;stroke-width:1.4"/>
<text class="faint" x="1157.42" y="243.5" font-size="10.0">ORION_XS_1400</text>
<line class="rule" x1="910" y1="252.0" x2="1120.42" y2="252.0" stroke-opacity="0.55"/>
<text class="faint" x="1015.21" y="268.14" text-anchor="middle" font-size="10.5" font-style="italic">5–7 · 3 unused</text>
<rect class="card" x="900" y="306.0" width="220" height="152" rx="9"/>
<rect x="912" y="318.0" width="10" height="10" rx="2.5" style="fill:#36b7ff"/>
<text x="928" y="327.0" font-size="13" font-weight="600">SMARTSHUNT_300A</text>
<text class="muted" x="912" y="345.0" font-size="10.5">Victron SmartShunt · SHU300A</text>
<rect x="1064.6" y="315.0" width="43.4" height="17" rx="8.5" style="fill:none;stroke:#d5d9df"/>
<text class="muted" x="1086.3" y="327.0" text-anchor="middle" font-size="10.5">3-pin</text>
<text class="muted" x="922" y="378.14" text-anchor="end" font-size="10.5" style="font-variant-numeric:tabular-nums">1</text>
<text class="" x="938" y="378.14" font-size="11.5">BATT-</text>
<line class="rule" x1="910" y1="386.0" x2="1110" y2="386.0" stroke-opacity="0.55"/>
<text class="muted" x="922" y="402.14" text-anchor="end" font-size="10.5" style="font-variant-numeric:tabular-nums">2</text>
<text class="" x="938" y="402.14" font-size="11.5">LOAD-</text>
<line class="rule" x1="910" y1="410.0" x2="1110" y2="410.0" stroke-opacity="0.55"/>
<text class="muted" x="922" y="426.14" text-anchor="end" font-size="10.5" style="font-variant-numeric:tabular-nums">3</text>
<text class="" x="938" y="426.14" font-size="11.5">VE.Direct</text>
<path d="M1120,422.0 h22 m-6,-4 l6,4 l-6,4" style="fill:none;stroke:#9aa1aa;stroke-width:1.4"/>
<text class="faint" x="1147" y="425.5" font-size="10.0">CERBO_GX</text>
<line class="rule" x1="900" y1="434.0" x2="1120" y2="434.0"/>
<text class="muted" x="912" y="453.0" font-size="10">All negative current passes BATT-</text>
<rect class="card" x="900" y="488.0" width="260" height="152" rx="9" stroke-dasharray="5 3"/>
<rect x="912" y="500.0" width="10" height="10" rx="2.5" style="fill:#36b7ff"/>
<text x="928" y="509.0" font-size="13" font-weight="600">BMS_CAN_CABLE</text>
<text class="muted" x="912" y="527.0" font-size="10.5">Cat5e/6 patch lead, self-terminated</text>
<rect x="1057.6" y="497.0" width="90.4" height="17" rx="8.5" style="fill:none;stroke:#d5d9df"/>
<text class="muted" x="1102.8" y="509.0" text-anchor="middle" font-size="10.5">3 core · RJ45</text>
<line class="rule" x1="910" y1="568.0" x2="1150" y2="568.0" stroke-opacity="0.55"/>
<line class="rule" x1="910" y1="592.0" x2="1150" y2="592.0" stroke-opacity="0.55"/>
<line class="rule" x1="900" y1="616.0" x2="1160" y2="616.0"/>
<text class="muted" x="912" y="635.0" font-size="10">Not straight-through: CAN moves pins 4/5 → 7/8</text>
<rect class="card" x="1360" y="488.0" width="210" height="152" rx="9"/>
<rect x="1372" y="500.0" width="10" height="10" rx="2.5" style="fill:#36b7ff"/>
<text x="1388" y="509.0" font-size="13" font-weight="600">CERBO_GX_CAN</text>
<text class="muted" x="1372" y="527.0" font-size="10.5">Cerbo GX · BMS-Can port</text>
<rect x="1520.5" y="497.0" width="37.5" height="17" rx="8.5" style="fill:none;stroke:#d5d9df"/>
<text class="muted" x="1539.2" y="509.0" text-anchor="middle" font-size="10.5">RJ45</text>
<text class="muted" x="1382" y="560.14" text-anchor="end" font-size="10.5" style="font-variant-numeric:tabular-nums">7</text>
<text class="" x="1398" y="560.14" font-size="11.5">CAN_H</text>
<line class="rule" x1="1370" y1="568.0" x2="1560" y2="568.0" stroke-opacity="0.55"/>
<text class="muted" x="1382" y="584.14" text-anchor="end" font-size="10.5" style="font-variant-numeric:tabular-nums">8</text>
<text class="" x="1398" y="584.14" font-size="11.5">CAN_L</text>
<line class="rule" x1="1370" y1="592.0" x2="1560" y2="592.0" stroke-opacity="0.55"/>
<text class="muted" x="1382" y="608.14" text-anchor="end" font-size="10.5" style="font-variant-numeric:tabular-nums">3</text>
<text class="" x="1398" y="608.14" font-size="11.5">GND</text>
<line class="rule" x1="1360" y1="616.0" x2="1570" y2="616.0"/>
<text class="muted" x="1372" y="635.0" font-size="10">CAN-bus BMS 500 kbit/s · DVCC on</text>
<rect class="card" x="1360" y="258.0" width="190" height="200" rx="9"/>
<rect x="1372" y="270.0" width="10" height="10" rx="2.5" style="fill:#e8e8e4"/>
<text x="1388" y="279.0" font-size="13" font-weight="600">BUS_BAR_GND</text>
<text class="muted" x="1372" y="297.0" font-size="10.5">24 V negative bus bar · M8</text>
<rect x="1494.6" y="267.0" width="43.4" height="17" rx="8.5" style="fill:none;stroke:#d5d9df"/>
<text class="muted" x="1516.3" y="279.0" text-anchor="middle" font-size="10.5">6-way</text>
<text class="muted" x="1382" y="330.14" text-anchor="end" font-size="10.5" style="font-variant-numeric:tabular-nums">1</text>
<text class="" x="1398" y="330.14" font-size="11.5">1</text>
<line class="rule" x1="1370" y1="338.0" x2="1540" y2="338.0" stroke-opacity="0.55"/>
<text class="muted" x="1382" y="354.14" text-anchor="end" font-size="10.5" style="font-variant-numeric:tabular-nums">2</text>
<text class="" x="1398" y="354.14" font-size="11.5">2</text>
<path d="M1550,350.0 h22 m-6,-4 l6,4 l-6,4" style="fill:none;stroke:#9aa1aa;stroke-width:1.4"/>
<text class="faint" x="1577" y="353.5" font-size="10.0">FUSE_PANEL_A</text>
<line class="rule" x1="1370" y1="362.0" x2="1540" y2="362.0" stroke-opacity="0.55"/>
<text class="muted" x="1382" y="378.14" text-anchor="end" font-size="10.5" style="font-variant-numeric:tabular-nums">3</text>
<text class="" x="1398" y="378.14" font-size="11.5">3</text>
<path d="M1550,374.0 h22 m-6,-4 l6,4 l-6,4" style="fill:none;stroke:#9aa1aa;stroke-width:1.4"/>
<text class="faint" x="1577" y="377.5" font-size="10.0">FUSE_PANEL_B</text>
<line class="rule" x1="1370" y1="386.0" x2="1540" y2="386.0" stroke-opacity="0.55"/>
<text class="muted" x="1382" y="402.14" text-anchor="end" font-size="10.5" style="font-variant-numeric:tabular-nums">4</text>
<text class="" x="1398" y="402.14" font-size="11.5">4</text>
<line class="rule" x1="1370" y1="410.0" x2="1540" y2="410.0" stroke-opacity="0.55"/>
<text class="faint" x="1382" y="426.14" text-anchor="end" font-size="10.5" style="font-variant-numeric:tabular-nums">5</text>
<text class="faint" x="1398" y="426.14" font-size="11.5">5</text>
<line class="rule" x1="1370" y1="434.0" x2="1540" y2="434.0" stroke-opacity="0.55"/>
<text class="muted" x="1382" y="450.14" text-anchor="end" font-size="10.5" style="font-variant-numeric:tabular-nums">6</text>
<text class="" x="1398" y="450.14" font-size="11.5">6</text>
<path d="M1550,446.0 h22 m-6,-4 l6,4 l-6,4" style="fill:none;stroke:#9aa1aa;stroke-width:1.4"/>
<text class="faint" x="1577" y="449.5" font-size="10.0">MPPT_150_45</text>
<rect class="card" x="1760" y="258.0" width="180" height="80" rx="9"/>
<rect x="1772" y="270.0" width="10" height="10" rx="2.5" style="fill:#e8e8e4"/>
<text x="1788" y="279.0" font-size="13" font-weight="600">CHASSIS_GND</text>
<text class="muted" x="1772" y="297.0" font-size="10.5">Single M10 stud</text>
<rect x="1896.4" y="267.0" width="31.6" height="17" rx="8.5" style="fill:none;stroke:#d5d9df"/>
<text class="muted" x="1912.2" y="279.0" text-anchor="middle" font-size="10.5">M10</text>
<text class="muted" x="1782" y="330.14" text-anchor="end" font-size="10.5" style="font-variant-numeric:tabular-nums">1</text>
<text class="" x="1798" y="330.14" font-size="11.5">GND</text>
<path class="casing" d="M271.9,168.0 L460.0,168.0" stroke-width="9.4"/>
<path class="core" d="M271.9,168.0 L460.0,168.0" stroke="#e23b3b" stroke-width="7.0"/>
<path class="casing" d="M710.9,168.0 L900.0,168.0" stroke-width="9.4"/>
<path class="core" d="M710.9,168.0 L900.0,168.0" stroke="#e23b3b" stroke-width="7.0"/>
<path class="casing case-bk" d="M271.9,192.0 L308.0,192.0 Q322.0,192.0 322.0,206.0 L322.0,274.0 Q322.0,288.0 336.0,288.0 L460.0,288.0" stroke-width="9.4"/>
<path class="core" d="M271.9,192.0 L308.0,192.0 Q322.0,192.0 322.0,206.0 L322.0,274.0 Q322.0,288.0 336.0,288.0 L460.0,288.0" stroke="#141518" stroke-width="7.0"/>
<path class="casing case-bk" d="M271.9,192.0 L284.0,192.0 Q296.0,192.0 296.0,204.0 L296.0,298.0 Q296.0,312.0 310.0,312.0 L460.0,312.0" stroke-width="9.4"/>
<path class="core" d="M271.9,192.0 L284.0,192.0 Q296.0,192.0 296.0,204.0 L296.0,298.0 Q296.0,312.0 310.0,312.0 L460.0,312.0" stroke="#141518" stroke-width="7.0"/>
<path class="casing case-bk" d="M710.0,336.0 L756.0,336.0 Q770.0,336.0 770.0,350.0 L770.0,360.0 Q770.0,374.0 784.0,374.0 L900.0,374.0" stroke-width="9.4"/>
<path class="core" d="M710.0,336.0 L756.0,336.0 Q770.0,336.0 770.0,350.0 L770.0,360.0 Q770.0,374.0 784.0,374.0 L900.0,374.0" stroke="#141518" stroke-width="7.0"/>
<path class="casing case-bk" d="M710.0,360.0 L737.0,360.0 Q744.0,360.0 744.0,367.0 L744.0,367.0 Q744.0,374.0 751.0,374.0 L900.0,374.0" stroke-width="9.4"/>
<path class="core" d="M710.0,360.0 L737.0,360.0 Q744.0,360.0 744.0,367.0 L744.0,367.0 Q744.0,374.0 751.0,374.0 L900.0,374.0" stroke="#141518" stroke-width="7.0"/>
<path class="casing case-bk" d="M1120.0,398.0 L1360.0,398.0" stroke-width="9.4"/>
<path class="core" d="M1120.0,398.0 L1360.0,398.0" stroke="#141518" stroke-width="7.0"/>
<path class="casing case-bk" d="M1550.0,326.0 L1760.0,326.0" stroke-width="9.4"/>
<path class="core" d="M1550.0,326.0 L1760.0,326.0" stroke="#141518" stroke-width="7.0"/>
<path class="casing" d="M710.0,384.0 L792.0,384.0 Q806.0,384.0 806.0,398.0 L806.0,542.0 Q806.0,556.0 820.0,556.0 L900.0,556.0" stroke-width="5.4"/>
<path class="core" d="M710.0,384.0 L792.0,384.0 Q806.0,384.0 806.0,398.0 L806.0,542.0 Q806.0,556.0 820.0,556.0 L900.0,556.0" stroke="#f0c419" stroke-width="3.0"/>
<path class="casing" d="M710.0,408.0 L810.0,408.0 Q824.0,408.0 824.0,422.0 L824.0,566.0 Q824.0,580.0 838.0,580.0 L900.0,580.0" stroke-width="5.4"/>
<path class="core" d="M710.0,408.0 L810.0,408.0 Q824.0,408.0 824.0,422.0 L824.0,566.0 Q824.0,580.0 838.0,580.0 L900.0,580.0" stroke="#2f9f4f" stroke-width="3.0"/>
<path class="casing case-wh" d="M710.0,432.0 L828.0,432.0 Q842.0,432.0 842.0,446.0 L842.0,590.0 Q842.0,604.0 856.0,604.0 L900.0,604.0" stroke-width="5.4"/>
<path class="core" d="M710.0,432.0 L828.0,432.0 Q842.0,432.0 842.0,446.0 L842.0,590.0 Q842.0,604.0 856.0,604.0 L900.0,604.0" stroke="#f3f3f1" stroke-width="3.0"/>
<path class="casing" d="M1160.0,556.0 L1360.0,556.0" stroke-width="5.4"/>
<path class="core" d="M1160.0,556.0 L1360.0,556.0" stroke="#f0c419" stroke-width="3.0"/>
<path class="casing" d="M1160.0,580.0 L1360.0,580.0" stroke-width="5.4"/>
<path class="core" d="M1160.0,580.0 L1360.0,580.0" stroke="#2f9f4f" stroke-width="3.0"/>
<path class="casing case-wh" d="M1160.0,604.0 L1360.0,604.0" stroke-width="5.4"/>
<path class="core" d="M1160.0,604.0 L1360.0,604.0" stroke="#f3f3f1" stroke-width="3.0"/>
<path class="casing" d="M900,556.0 L1160,556.0" stroke-width="5.4"/>
<path class="core" d="M900,556.0 L1160,556.0" stroke="#f0c419" stroke-width="3.0"/>
<path class="casing" d="M900,580.0 L1160,580.0" stroke-width="5.4"/>
<path class="core" d="M900,580.0 L1160,580.0" stroke="#2f9f4f" stroke-width="3.0"/>
<path class="casing case-wh" d="M900,604.0 L1160,604.0" stroke-width="5.4"/>
<path class="core" d="M900,604.0 L1160,604.0" stroke="#f3f3f1" stroke-width="3.0"/>
<rect x="1004.4" y="547.5" width="51.2" height="17" rx="8.5" class="card" style="stroke-opacity:.9"/>
<text x="1030.0" y="560.0" text-anchor="middle" font-size="11.0">CAN_H</text>
<text class="muted" x="914" y="551.0" font-size="9">YE</text>
<rect x="1004.4" y="571.5" width="51.2" height="17" rx="8.5" class="card" style="stroke-opacity:.9"/>
<text x="1030.0" y="584.0" text-anchor="middle" font-size="11.0">CAN_L</text>
<text class="muted" x="914" y="575.0" font-size="9">GN</text>
<rect x="1011.4" y="595.5" width="37.1" height="17" rx="8.5" class="card" style="stroke-opacity:.9"/>
<text x="1030.0" y="608.0" text-anchor="middle" font-size="11.0">GND</text>
<text class="muted" x="914" y="599.0" font-size="9">WH</text>
<circle class="port" cx="271.94" cy="168.0" r="3.2"/>
<circle class="port" cx="460" cy="168.0" r="3.2"/>
<circle class="port" cx="710.9" cy="168.0" r="3.2"/>
<circle class="port" cx="900" cy="168.0" r="3.2"/>
<circle class="port" cx="271.94" cy="192.0" r="3.2"/>
<circle class="port" cx="460" cy="288.0" r="3.2"/>
<circle class="port" cx="460" cy="312.0" r="3.2"/>
<circle class="port" cx="710" cy="336.0" r="3.2"/>
<circle class="port" cx="900" cy="374.0" r="3.2"/>
<circle class="port" cx="710" cy="360.0" r="3.2"/>
<circle class="port" cx="1120" cy="398.0" r="3.2"/>
<circle class="port" cx="1360" cy="398.0" r="3.2"/>
<circle class="port" cx="1550" cy="326.0" r="3.2"/>
<circle class="port" cx="1760" cy="326.0" r="3.2"/>
<circle class="port" cx="710" cy="384.0" r="3.2"/>
<circle class="port" cx="710" cy="408.0" r="3.2"/>
<circle class="port" cx="710" cy="432.0" r="3.2"/>
<circle class="port" cx="1360" cy="556.0" r="3.2"/>
<circle class="port" cx="1360" cy="580.0" r="3.2"/>
<circle class="port" cx="1360" cy="604.0" r="3.2"/>
<rect class="tag" x="314.6" y="159.5" width="102.8" height="17" rx="8.5"/>
<text class="tagt" x="366.0" y="171.6" text-anchor="middle" font-size="10.0">50 mm² · 1.5 m</text>
<rect class="tag" x="754.1" y="159.5" width="102.8" height="17" rx="8.5"/>
<text class="tagt" x="805.5" y="171.6" text-anchor="middle" font-size="10.0">50 mm² · 0.1 m</text>
<rect class="tag" x="330.3" y="279.5" width="121.4" height="17" rx="8.5"/>
<text class="tagt" x="391.0" y="291.6" text-anchor="middle" font-size="10.0">25 mm² · 0.2 m ×2</text>
<rect class="tag" x="780.5" y="365.5" width="109.0" height="17" rx="8.5"/>
<text class="tagt" x="835.0" y="377.6" text-anchor="middle" font-size="10.0">25 mm² · 1 m ×2</text>
<rect class="tag" x="1188.6" y="389.5" width="102.8" height="17" rx="8.5"/>
<text class="tagt" x="1240.0" y="401.6" text-anchor="middle" font-size="10.0">50 mm² · 0.1 m</text>
<rect class="tag" x="1603.6" y="317.5" width="102.8" height="17" rx="8.5"/>
<text class="tagt" x="1655.0" y="329.6" text-anchor="middle" font-size="10.0">16 mm² · 1.5 m</text>
</svg>