<svg xmlns="http://www.w3.org/2000/svg" viewBox="0 0 1284 296" width="1284" height="296" role="img" aria-label="Pipeline: wiring and plumbing YAML are read into one model, laid out with elkjs, drawn as SVG and rasterised to PNG">
<rect width="1284" height="296" rx="18" fill="#eef0f3"/>
<path d="M220,84 L238.0,84.0 Q252,84 252.0,98.0 L252.0,134.0 Q252,148 266.0,148.0 L284,148" fill="none" stroke="#7f8792" stroke-width="6.9"/>
<path d="M220,84 L238.0,84.0 Q252,84 252.0,98.0 L252.0,134.0 Q252,148 266.0,148.0 L284,148" fill="none" stroke="#e23b3b" stroke-width="4.5"/>
<circle cx="220" cy="84" r="3.6" fill="#ffffff" stroke="#5e6670" stroke-width="1.3"/>
<circle cx="284" cy="148" r="3.6" fill="#ffffff" stroke="#5e6670" stroke-width="1.3"/>
<path d="M220,212 L238.0,212.0 Q252,212 252.0,198.0 L252.0,162.0 Q252,148 266.0,148.0 L284,148" fill="none" stroke="#7f8792" stroke-width="10.4"/>
<path d="M220,212 L238.0,212.0 Q252,212 252.0,198.0 L252.0,162.0 Q252,148 266.0,148.0 L284,148" fill="none" stroke="#c4773f" stroke-width="8"/>
<circle cx="220" cy="212" r="3.6" fill="#ffffff" stroke="#5e6670" stroke-width="1.3"/>
<circle cx="284" cy="148" r="3.6" fill="#ffffff" stroke="#5e6670" stroke-width="1.3"/>
<path d="M480,148 L544,148" fill="none" stroke="#7f8792" stroke-width="6.9"/>
<path d="M480,148 L544,148" fill="none" stroke="#8e939b" stroke-width="4.5"/>
<circle cx="480" cy="148" r="3.6" fill="#ffffff" stroke="#5e6670" stroke-width="1.3"/>
<circle cx="544" cy="148" r="3.6" fill="#ffffff" stroke="#5e6670" stroke-width="1.3"/>
<path d="M740,148 L804,148" fill="none" stroke="#7f8792" stroke-width="6.9"/>
<path d="M740,148 L804,148" fill="none" stroke="#8e939b" stroke-width="4.5"/>
<circle cx="740" cy="148" r="3.6" fill="#ffffff" stroke="#5e6670" stroke-width="1.3"/>
<circle cx="804" cy="148" r="3.6" fill="#ffffff" stroke="#5e6670" stroke-width="1.3"/>
<path d="M1000,148 L1018.0,148.0 Q1032,148 1032.0,134.0 L1032.0,98.0 Q1032,84 1046.0,84.0 L1064,84" fill="none" stroke="#7f8792" stroke-width="6.9"/>
<path d="M1000,148 L1018.0,148.0 Q1032,148 1032.0,134.0 L1032.0,98.0 Q1032,84 1046.0,84.0 L1064,84" fill="none" stroke="#8e939b" stroke-width="4.5"/>
<circle cx="1000" cy="148" r="3.6" fill="#ffffff" stroke="#5e6670" stroke-width="1.3"/>
<circle cx="1064" cy="84" r="3.6" fill="#ffffff" stroke="#5e6670" stroke-width="1.3"/>
<path d="M1162,116 L1162,180" fill="none" stroke="#7f8792" stroke-width="6.9"/>
<path d="M1162,116 L1162,180" fill="none" stroke="#8e939b" stroke-width="4.5"/>
<circle cx="1162" cy="116" r="3.6" fill="#ffffff" stroke="#5e6670" stroke-width="1.3"/>
<circle cx="1162" cy="180" r="3.6" fill="#ffffff" stroke="#5e6670" stroke-width="1.3"/>
<text x="1150" y="152.0" text-anchor="end" font-family="Inter, -apple-system, 'Segoe UI', Helvetica, Arial, sans-serif" font-size="12" fill="#5e6670">flatten each theme</text>
<rect x="24" y="52" width="196" height="64" rx="10" fill="#ffffff" stroke="#d5d9df"/>
<rect x="40" y="69" width="10" height="10" rx="2.5" fill="#ff8a1f"/>
<text x="57" y="79" font-family="Inter, -apple-system, 'Segoe UI', Helvetica, Arial, sans-serif" font-size="15" font-weight="600" fill="#1b1f24">Wiring</text>
<text x="40" y="99" font-family="Inter, -apple-system, 'Segoe UI', Helvetica, Arial, sans-serif" font-size="12" fill="#5e6670">connectors, cables, cores</text>
<rect x="24" y="180" width="196" height="64" rx="10" fill="#ffffff" stroke="#d5d9df"/>
<rect x="40" y="197" width="10" height="10" rx="2.5" fill="#c4773f"/>
<text x="57" y="207" font-family="Inter, -apple-system, 'Segoe UI', Helvetica, Arial, sans-serif" font-size="15" font-weight="600" fill="#1b1f24">Plumbing</text>
<text x="40" y="227" font-family="Inter, -apple-system, 'Segoe UI', Helvetica, Arial, sans-serif" font-size="12" fill="#5e6670">pipes, fittings, tanks</text>
<rect x="284" y="116" width="196" height="64" rx="10" fill="#ffffff" stroke="#d5d9df"/>
<text x="300" y="143" font-family="Inter, -apple-system, 'Segoe UI', Helvetica, Arial, sans-serif" font-size="15" font-weight="600" fill="#1b1f24">YAML reader</text>
<text x="300" y="163" font-family="Inter, -apple-system, 'Segoe UI', Helvetica, Arial, sans-serif" font-size="12" fill="#5e6670">one format, validated</text>
<rect x="544" y="116" width="196" height="64" rx="10" fill="#ffffff" stroke="#d5d9df"/>
<text x="560" y="143" font-family="Inter, -apple-system, 'Segoe UI', Helvetica, Arial, sans-serif" font-size="15" font-weight="600" fill="#1b1f24">Model</text>
<text x="560" y="163" font-family="Inter, -apple-system, 'Segoe UI', Helvetica, Arial, sans-serif" font-size="12" fill="#5e6670">one graph for both</text>
<rect x="804" y="116" width="196" height="64" rx="10" fill="#ffffff" stroke="#d5d9df"/>
<text x="820" y="143" font-family="Inter, -apple-system, 'Segoe UI', Helvetica, Arial, sans-serif" font-size="15" font-weight="600" fill="#1b1f24">Layout</text>
<text x="820" y="163" font-family="Inter, -apple-system, 'Segoe UI', Helvetica, Arial, sans-serif" font-size="12" fill="#5e6670">elkjs, orthogonal routes</text>
<rect x="1064" y="52" width="196" height="64" rx="10" fill="#ffffff" stroke="#d5d9df"/>
<text x="1080" y="79" font-family="Inter, -apple-system, 'Segoe UI', Helvetica, Arial, sans-serif" font-size="15" font-weight="600" fill="#1b1f24">SVG</text>
<text x="1080" y="99" font-family="Inter, -apple-system, 'Segoe UI', Helvetica, Arial, sans-serif" font-size="12" fill="#5e6670">light and dark, via CSS</text>
<rect x="1064" y="180" width="196" height="64" rx="10" fill="#ffffff" stroke="#d5d9df"/>
<text x="1080" y="207" font-family="Inter, -apple-system, 'Segoe UI', Helvetica, Arial, sans-serif" font-size="15" font-weight="600" fill="#1b1f24">PNG</text>
<text x="1080" y="227" font-family="Inter, -apple-system, 'Segoe UI', Helvetica, Arial, sans-serif" font-size="12" fill="#5e6670">resvg, one per theme</text>
</svg>
